<?xml version="1.0" encoding="UTF-8"?>
<!DOCTYPE svg PUBLIC "-//W3C//DTD SVG 1.1//EN" "http://www.w3.org/Graphics/SVG/1.1/DTD/svg11.dtd">
<!-- Creator: CorelDRAW -->
<svg xmlns="http://www.w3.org/2000/svg" xml:space="preserve" width="100%" height="100%" style="shape-rendering:geometricPrecision; text-rendering:geometricPrecision; image-rendering:optimizeQuality; fill-rule:evenodd; clip-rule:evenodd"
viewBox="0 0 394002 146386"
 xmlns:xlink="http://www.w3.org/1999/xlink">
 <defs>
  <style type="text/css">
   <![CDATA[
    .fil0 {fill:white}
   ]]>
  </style>
 </defs>
 <g id="Layer_x0020_1">
  <metadata id="CorelCorpID_0Corel-Layer"/>
  <path class="fil0" d="M56158.3 34004.3c-13084.6,-1581.89 -28483.1,9555.12 -31255.9,13096.5 -8327.17,1699.61 -22126.8,10490.9 -24902.4,21706.7 3492.91,-931.89 6986.22,-931.89 10213.4,-1064.96 -1331.1,12195.3 846.457,26228 11785,33407.9 -6207.87,-6714.57 -10816.9,-16378.3 -2757.87,-36242.1 -2118.9,-2557.09 -8406.69,-2587.4 -12114.6,-671.654 3062.99,-7646.85 19545.7,-15043.3 38439,-14777.2 -3594.09,-3146.46 -8466.93,-527.165 -8197.64,-4031.89 420.866,-5475.2 14050.4,-10049.6 18790.9,-11423.2zm170581 18842.9l-4151.57 0 -1649.61 -4292.52 -7551.57 0 -1556.69 4292.52 -4046.46 0 7358.27 -18890.2 4033.07 0 7564.57 18890.2zm-7023.62 -7472.44l-2603.94 -7010.63 -2550.79 7010.63 5154.72 0zm24251.2 5075.59c932.283,668.504 1952.76,1205.12 3052.36,1596.46l-1403.15 2696.06c-575.984,-171.654 -1138.98,-409.055 -1688.58,-708.268 -123.228,-61.4173 -967.717,-620.079 -2537.8,-1675.59 -1240.55,540.945 -2608.27,809.449 -4112.2,809.449 -2903.15,0 -5176.77,-853.543 -6821.65,-2564.17 -1644.88,-1706.69 -2467.32,-4107.87 -2467.32,-7200 0,-3087.4 822.441,-5484.65 2471.65,-7199.61 1649.21,-1711.02 3887.8,-2568.5 6716.14,-2568.5 2797.24,0 5018.11,857.48 6658.66,2568.5 1640.55,1714.96 2462.99,4112.2 2462.99,7199.61 0,1631.89 -228.74,3065.75 -681.89,4301.57 -347.244,945.669 -897.244,1860.24 -1649.21,2744.49zm-3069.69 -2150.79c492.52,-576.378 857.48,-1271.26 1103.94,-2089.37 241.732,-813.386 364.961,-1750.39 364.961,-2805.91 0,-2185.83 -479.528,-3812.99 -1442.52,-4890.55 -963.386,-1077.56 -2221.26,-1618.5 -3773.62,-1618.5 -1557.09,0 -2814.96,540.945 -3782.68,1622.83 -967.323,1081.89 -1451.18,2709.06 -1451.18,4886.22 0,2203.54 483.858,3857.09 1451.18,4952.36 967.717,1095.28 2185.83,1644.88 3663.78,1644.88 549.606,0 1073.23,-92.126 1561.42,-272.441 -774.016,-505.906 -1561.42,-901.969 -2357.48,-1187.8l1068.9 -2177.17c1253.15,431.102 2453.94,1073.23 3593.31,1935.43zm8365.35 -14342.5l3812.99 0 0 10230.3c0,1622.83 48.4252,2678.35 140.945,3157.87 162.598,774.016 553.937,1394.09 1165.35,1860.24 615.748,470.472 1455.91,703.937 2520.08,703.937 1082.28,0 1900,-220.079 2450,-664.173 549.606,-439.764 879.528,-985.433 989.37,-1627.56 114.567,-646.457 167.323,-1715.35 167.323,-3210.63l0 -10450 3812.99 0 0 9922.44c0,2269.29 -100.787,3870.08 -307.874,4807.09 -206.693,936.614 -584.646,1724.02 -1138.98,2370.47 -553.937,642.126 -1297.24,1156.69 -2220.87,1539.37 -928.346,382.677 -2142.13,572.047 -3637.4,572.047 -1803.15,0 -3171.26,-207.087 -4103.54,-624.803 -932.283,-417.717 -1666.93,-958.661 -2207.87,-1622.83 -540.945,-664.173 -897.244,-1363.39 -1068.9,-2093.7 -250.394,-1081.89 -373.622,-2678.35 -373.622,-4793.7l0 -10076.4zm36117.3 18890.2l-4151.57 0 -1649.61 -4292.52 -7551.57 0 -1556.69 4292.52 -4046.46 0 7358.27 -18890.2 4033.07 0 7564.57 18890.2zm-7023.62 -7472.44l-2603.94 -7010.63 -2550.79 7010.63 5154.72 0zm-68664.2 30298l6971.26 0c1570.08,0 2766.54,118.898 3593.31,360.63 1108.27,325.591 2058.27,905.906 2845.67,1741.73 791.732,831.102 1394.09,1851.57 1807.48,3056.69 409.055,1209.45 615.748,2696.06 615.748,4468.5 0,1552.76 -193.307,2894.09 -580.315,4020.08 -470.866,1372.05 -1143.7,2485.04 -2023.23,3333.86 -659.843,646.457 -1552.76,1147.64 -2678.74,1508.27 -839.764,268.504 -1965.75,400.394 -3377.56,400.394l-7173.62 0 0 -18890.2zm3813.39 3197.64l0 12508.3 2845.67 0c1064.17,0 1833.86,-57.0866 2309.06,-180.315 615.748,-153.937 1130.31,-413.386 1539.37,-783.071 409.055,-369.291 738.583,-980.709 998.425,-1825.2 255.118,-844.488 387.008,-2001.18 387.008,-3461.42 0,-1459.84 -131.89,-2577.17 -387.008,-3359.84 -259.843,-783.071 -620.472,-1394.49 -1082.28,-1829.92 -466.142,-439.764 -1055.51,-734.252 -1767.72,-888.189 -532.283,-123.228 -1574.8,-180.315 -3131.5,-180.315l-1711.02 0zm15257.1 15692.5l0 -18890.2 14003.5 0 0 3197.64 -10190.6 0 0 4187.01 9482.68 0 0 3179.92 -9482.68 0 0 5141.34 10551.2 0 0 3184.25 -14364.2 0zm16633.9 -6144.09l3712.2 -365.354c219.685,1249.21 672.835,2164.17 1359.06,2749.21 681.496,580.315 1600.79,875.197 2761.81,875.197 1227.17,0 2155.12,-259.843 2775.2,-783.071 624.803,-518.898 937.008,-1125.98 937.008,-1820.87 0,-448.425 -131.89,-826.772 -395.669,-1138.98 -259.843,-316.929 -716.929,-589.37 -1372.44,-818.11 -444.094,-158.268 -1464.57,-431.102 -3052.36,-826.772 -2045.28,-505.906 -3478.74,-1130.31 -4301.18,-1869.29 -1161.42,-1038.19 -1741.73,-2304.72 -1741.73,-3800 0,-963.386 272.441,-1860.63 818.11,-2700.39 545.276,-835.827 1332.68,-1473.62 2357.09,-1913.39 1029.53,-435.433 2265.35,-655.118 3716.54,-655.118 2375.2,0 4156.3,518.898 5357.09,1556.69 1196.46,1042.52 1825.2,2427.95 1886.61,4165.35l-3812.99 166.929c-162.598,-972.047 -514.567,-1671.26 -1051.18,-2093.7 -536.614,-426.378 -1341.34,-637.402 -2414.57,-637.402 -1108.27,0 -1979.13,224.016 -2603.94,681.496 -404.331,290.157 -606.693,681.89 -606.693,1170.08 0,448.425 188.976,831.102 567.323,1147.64 479.528,404.724 1649.21,827.165 3505.12,1262.6 1856.3,439.764 3228.35,892.52 4116.93,1359.06 888.189,470.472 1583.07,1108.27 2088.98,1921.65 501.575,813.78 751.969,1816.54 751.969,3008.66 0,1081.89 -298.819,2097.64 -901.575,3038.98 -602.362,945.669 -1451.18,1649.21 -2550.79,2106.69 -1099.61,461.811 -2471.65,690.551 -4112.2,690.551 -2388.19,0 -4222.44,-549.606 -5502.36,-1653.54 -1279.53,-1103.94 -2044.88,-2713.78 -2291.34,-4824.8zm18450.4 6144.09l0 -18890.2 3813.39 0 0 18890.2 -3813.39 0zm16238.2 -6944.88l0 -3184.25 8220.08 0 0 7525.59c-800.394,774.016 -1957.09,1455.51 -3474.41,2044.88 -1517.32,585.039 -3052.36,879.921 -4604.72,879.921 -1974.8,0 -3698.82,-413.78 -5168.11,-1240.55 -1468.9,-831.102 -2572.83,-2014.17 -3311.81,-3557.87 -738.583,-1544.09 -1108.27,-3219.69 -1108.27,-5031.5 0,-1966.14 413.386,-3716.54 1235.83,-5247.24 827.165,-1525.98 2031.89,-2700.39 3624.02,-3514.17 1209.84,-628.74 2718.11,-940.945 4521.65,-940.945 2344.09,0 4177.95,492.52 5493.31,1473.23 1319.29,985.039 2168.11,2344.09 2546.46,4081.5l-3787.01 708.268c-268.11,-928.346 -769.685,-1662.6 -1503.94,-2199.21 -734.646,-536.614 -1649.61,-804.724 -2748.82,-804.724 -1666.93,0 -2990.94,527.559 -3975.98,1583.07 -985.433,1060.24 -1473.62,2625.98 -1473.62,4706.3 0,2238.58 497.244,3922.83 1495.67,5044.49 993.701,1121.65 2300,1680.31 3914.17,1680.31 800.394,0 1600.79,-158.661 2405.91,-470.866 800.394,-312.205 1490.94,-694.882 2066.93,-1138.98l0 -2397.24 -4367.32 0zm11774 6944.88l0 -18890.2 3712.2 0 7731.89 12614.2 0 -12614.2 3544.88 0 0 18890.2 -3830.71 0 -7613.39 -12319.3 0 12319.3 -3544.88 0zm-77905.1 41715.7l0 -15692.5 -5603.15 0 0 -3197.64 15011 0 0 3197.64 -5590.16 0 0 15692.5 -3817.72 0zm11870.9 0l0 -18890.2 14003.5 0 0 3197.64 -10190.6 0 0 4187.01 9482.68 0 0 3179.92 -9482.68 0 0 5141.34 10551.2 0 0 3184.25 -14364.2 0zm29687.8 -6944.88l3694.49 1170.08c-567.323,2062.6 -1508.66,3593.31 -2828.35,4596.06 -1314.96,998.425 -2990.55,1500 -5018.11,1500 -2507.09,0 -4569.69,-857.874 -6183.86,-2568.9 -1614.17,-1714.96 -2423.23,-4059.45 -2423.23,-7027.95 0,-3144.88 813.386,-5585.83 2436.61,-7327.56 1622.83,-1737.01 3755.91,-2607.87 6403.54,-2607.87 2309.06,0 4187.01,681.496 5629.53,2049.21 862.205,805.118 1504.33,1966.14 1935.43,3479.13l-3777.95 901.575c-220.079,-980.709 -686.22,-1754.72 -1398.82,-2322.05 -708.268,-567.323 -1570.08,-848.819 -2581.5,-848.819 -1398.82,0 -2537.8,501.181 -3408.66,1508.27 -870.866,1002.76 -1306.3,2630.31 -1306.3,4882.28 0,2388.19 426.378,4090.16 1288.58,5101.57 857.48,1016.14 1974.8,1522.05 3346.85,1522.05 1016.14,0 1887.01,-321.26 2616.93,-967.717 730.315,-642.126 1253.54,-1658.27 1574.8,-3039.37zm6979.53 6944.88l0 -18890.2 3817.72 0 0 7433.07 7472.44 0 0 -7433.07 3813.39 0 0 18890.2 -3813.39 0 0 -8259.84 -7472.44 0 0 8259.84 -3817.72 0zm19083.5 0l0 -18890.2 3712.2 0 7731.89 12614.2 0 -12614.2 3544.88 0 0 18890.2 -3830.71 0 -7613.39 -12319.3 0 12319.3 -3544.88 0zm18248 -9328.35c0,-1926.38 285.827,-3540.55 861.811,-4846.85 431.102,-959.055 1016.14,-1825.2 1759.45,-2590.55 743.307,-761.024 1556.69,-1328.35 2440.94,-1697.64 1178.74,-501.575 2533.46,-747.638 4072.83,-747.638 2783.86,0 5009.45,861.811 6680.71,2590.55 1671.26,1724.02 2506.69,4125.2 2506.69,7199.61 0,3052.36 -831.102,5436.22 -2488.98,7160.24 -1658.27,1719.69 -3874.8,2581.89 -6645.67,2581.89 -2810.63,0 -5044.88,-857.874 -6702.76,-2568.9 -1658.27,-1714.96 -2485.04,-4076.77 -2485.04,-7080.71zm3927.56 -127.559c0,2137.4 496.85,3760.24 1481.89,4864.17 989.764,1103.94 2243.31,1653.94 3764.96,1653.94 1517.32,0 2766.54,-545.669 3742.91,-1645.28 972.047,-1094.88 1460.24,-2735.43 1460.24,-4925.59 0,-2164.17 -475.197,-3778.35 -1420.87,-4846.85 -950,-1064.57 -2212.2,-1596.46 -3782.28,-1596.46 -1574.41,0 -2841.34,540.945 -3804.33,1618.5 -958.661,1077.56 -1442.52,2700.39 -1442.52,4877.56zm17474 9455.91l0 -18736.2 3812.99 0 0 15552 9482.68 0 0 3184.25 -13295.7 0zm15244.1 -9328.35c0,-1926.38 285.827,-3540.55 861.811,-4846.85 431.102,-959.055 1016.14,-1825.2 1759.45,-2590.55 743.307,-761.024 1556.69,-1328.35 2440.94,-1697.64 1178.74,-501.575 2533.46,-747.638 4072.83,-747.638 2783.86,0 5009.45,861.811 6680.71,2590.55 1671.26,1724.02 2506.69,4125.2 2506.69,7199.61 0,3052.36 -831.102,5436.22 -2488.98,7160.24 -1658.27,1719.69 -3874.8,2581.89 -6645.67,2581.89 -2810.63,0 -5044.88,-857.874 -6702.76,-2568.9 -1658.27,-1714.96 -2485.04,-4076.77 -2485.04,-7080.71zm3927.56 -127.559c0,2137.4 496.85,3760.24 1481.89,4864.17 989.764,1103.94 2243.31,1653.94 3764.96,1653.94 1517.32,0 2766.54,-545.669 3742.91,-1645.28 972.047,-1094.88 1460.24,-2735.43 1460.24,-4925.59 0,-2164.17 -475.197,-3778.35 -1420.87,-4846.85 -950,-1064.57 -2212.2,-1596.46 -3782.28,-1596.46 -1574.41,0 -2841.34,540.945 -3804.33,1618.5 -958.661,1077.56 -1442.52,2700.39 -1442.52,4877.56zm26160.2 2511.02l0 -3184.25 8220.08 0 0 7525.59c-800.394,774.016 -1957.09,1455.51 -3474.41,2044.88 -1517.32,585.039 -3052.36,879.921 -4604.72,879.921 -1974.8,0 -3698.82,-413.78 -5168.11,-1240.55 -1468.9,-831.102 -2572.83,-2014.17 -3311.81,-3557.87 -738.583,-1544.09 -1108.27,-3219.69 -1108.27,-5031.5 0,-1966.14 413.386,-3716.54 1235.83,-5247.24 827.165,-1525.98 2031.89,-2700.39 3624.02,-3514.17 1209.84,-628.74 2718.11,-940.945 4521.65,-940.945 2344.09,0 4177.95,492.52 5493.31,1473.23 1319.29,985.039 2168.11,2344.09 2546.46,4081.5l-3787.01 708.268c-268.11,-928.346 -769.685,-1662.6 -1503.94,-2199.21 -734.646,-536.614 -1649.61,-804.724 -2748.82,-804.724 -1666.93,0 -2990.94,527.559 -3975.98,1583.07 -985.433,1060.24 -1473.62,2625.98 -1473.62,4706.3 0,2238.58 497.244,3922.83 1495.67,5044.49 993.701,1121.65 2300,1680.31 3914.17,1680.31 800.394,0 1600.79,-158.661 2405.91,-470.866 800.394,-312.205 1490.94,-694.882 2066.93,-1138.98l0 -2397.24 -4367.32 0zm16695.7 6944.88l0 -7951.97 -6918.5 -10938.2 4473.23 0 4446.46 7472.44 4354.33 -7472.44 4393.7 0 -6944.88 10964.6 0 7925.59 -3804.33 0zm-352207 -134935c0,817.717 5425.59,4199.21 7505.12,8622.44 1432.68,3047.64 2620.08,9457.48 2442.13,13552.8 3388.58,-1340.16 6429.13,-5273.23 10067.7,-5103.54 7183.86,335.827 6968.5,11417.3 685.039,11018.1 -4172.83,0 -3465.35,-4512.6 -1883.07,-6586.61 -7648.43,0 -11411.4,8973.23 -10080.3,12095.3 7159.06,-425.984 12414.6,-4673.23 20021.3,-3759.06 6033.46,0 -5972.83,13960.2 -7240.16,15981.1 6840.94,-1533.46 13942.1,-10576.8 16222.4,-12763.8 -1611.42,4221.26 -5087.01,9640.55 -4568.5,13196.5 1770.87,-218.898 8600,-7092.52 12900,-10639l-1318.11 4359.06c-1033.46,2048.82 -1667.32,4097.64 -2700.39,6146.85 3955.91,-1887.4 7778.74,-6835.43 11734.6,-10186.6 -904.724,3748.43 -3606.3,8694.09 -2913.39,11642.9 14365.7,-3346.46 29046.5,-7257.87 46570.1,-7257.87l3360.24 0c6231.1,0 18484.3,1650 18484.3,7525.59 -332.677,5492.13 -4799.61,8780.71 -5110.24,9684.65 -275.591,801.969 306.693,1339.76 1044.88,1024.41 1697.24,-725.197 12080.3,-6213.78 13067.7,-13011 691.732,-4758.27 -7689.76,-12483.9 -18706.7,-15476.8 -12485.8,-3391.73 -29119.3,-4203.54 -41576.4,-3991.34 -21701.6,-9484.25 -41223.6,-27417.7 -65992.1,-27417.7 -1100,0 -2016.14,401.969 -2016.14,1343.7zm17878.7 87356.7c-1065.75,-10362.6 24154.3,-16837.8 36955.1,-10618.5 -2992.91,4085.04 -12842.9,3486.61 -17466.1,2554.72 1538.19,5495.28 14140.2,6720.47 22442.9,6453.54 10011.8,-321.654 15888.2,414.173 24586.2,6574.02 -5724.8,-6888.98 -25160.6,-22989.4 -45367.3,-22162.6 -11893.7,486.614 -26992.1,4046.46 -27066.1,17331.9 -62.9921,11352.8 21299.6,21548 32390.9,26074 2907.48,-1863.78 13962.6,-14922.8 27407.1,-15734.6 -8946.85,-6844.49 -27146.1,4186.61 -33721.7,4444.09 593.307,-4867.72 7092.52,-6431.1 10333.5,-6193.7 -2517.72,-6164.57 -29126.4,4584.65 -30494.5,-8722.83zm68813.4 -35674.8c122.047,-2748.43 5049.61,-3256.3 8862.99,-3566.14 3271.65,-265.748 10449.6,681.102 11031.9,4970.08 258.661,1907.09 -347.244,3748.43 -1053.54,5622.83 4203.54,-1855.12 8508.27,-4895.28 8306.3,-8716.54 -294.488,-5561.81 -18479.1,-5406.69 -23388.2,-5103.15 -4909.06,303.937 -21417.3,2683.46 -26475.6,6992.52 4962.2,-258.661 19740.2,151.575 19355.9,5096.85 -335.827,4323.23 -11303.1,5239.76 -23686.6,6000.39 -15425.6,947.244 -34172.4,4644.09 -32764.2,-485.039 1518.5,-5530.31 11932.3,-6307.48 18544.5,-5109.84 -19155.5,-10142.5 -48405.5,10819.7 -39377.2,30638.6 0,-5529.53 1640.16,-10898.4 6569.69,-13989.4 17641.3,-11060.2 83476.4,-1584.65 90202.8,-15638.2 -1498.82,600.787 -4026.38,922.835 -4594.09,451.575 -74.0157,-402.362 961.024,-2024.8 761.417,-3266.14 -1386.22,532.677 -2572.83,1131.89 -3692.91,1131.89 570.079,-869.291 940.157,-1738.58 977.559,-3207.48 -1268.5,740.945 -2736.61,1216.14 -4337.8,1558.66 623.228,-756.299 1112.99,-1577.95 1070.08,-3000.79 -1398.43,1188.58 -5918.5,1330.31 -6312.99,-380.709zm-20287.8 50192.1c10859.8,319.291 23183.9,-426.772 31248,3220.08 -16540.6,-1597.24 -39269.7,9327.56 -47922,17611 0,2227.56 8209.45,12455.5 14112.6,14910.2 818.504,-26060.6 37717.3,-30359.1 54029.1,-29161 -5957.87,-10289.8 -34838.6,-14080.3 -51467.7,-6580.31zm-40195.3 26473.2c-13963.8,-12284.3 -4489.76,-15990.9 385.827,-10272 6129.13,7189.37 14029.9,19171.7 20524,22388.6 10584.3,5243.31 22016.5,5568.9 35135.4,3066.54 -19660.6,-2318.5 -42244.5,-4493.7 -41127.2,-26473.6 -29849.6,-7957.87 -40609.4,-14555.1 -52323.6,-31516.5 4987.8,14296.1 22532.3,34452.4 37405.5,42807.1z"/>
 </g>
</svg>
