<svg xmlns="http://www.w3.org/2000/svg" viewBox="0 0 24 24" fill="#f5923a" aria-hidden="true">
  <path d="M12 2C6.5 2 2 6.5 2 12c0 1.8.5 3.5 1.3 5L2 22l5.2-1.3c1.4.8 3.1 1.3 4.8 1.3 5.5 0 10-4.5 10-10S17.5 2 12 2Zm5.8 14.2c-.2.7-1.3 1.3-1.8 1.4-.5.1-1.1.2-1.8-.1-.4-.2-1-.4-1.7-.8-3-2-4.9-4.9-5.1-5.1-.2-.2-1.2-1.6-1.2-3.1 0-1.5.8-2.2 1.1-2.5.3-.3.6-.4.8-.4h.6c.2 0 .4 0 .6.5.2.5.7 1.7.8 1.8.1.1.1.3 0 .5 0 .2-.1.3-.2.4-.1.1-.2.2-.3.4-.1.1-.2.3 0 .6.2.3.9 1.5 2 2.4 1.4 1.2 2.5 1.6 2.9 1.8.4.2.6.2.8-.1.2-.3.3-.8.5-1 .1-.2.3-.2.5-.1.2.1 1.3.6 1.5.7.2.1.4.2.4.3 0 .2 0 .5-.2.8Z"/>
</svg>
